<svg version="1" xmlns="http://www.w3.org/2000/svg" width="682.667" height="682.667" viewBox="0 0 512.000000 512.000000"><path d="M0 256v256h512V0H0v256zm282-146.2c50.2 11.7 84.6 47 90.6 93l.7 5.2-30.3-.2-30.2-.3-1.7-5.5c-9.3-29.5-34.8-44.9-68.1-41.1-12.5 1.4-20.5 4-29.6 9.7-21.6 13.4-34.2 38.4-37.5 74.6-2.5 26.7 3.1 55.7 14.2 74.5 7.8 13.1 23 25.7 36.5 30.2 18.9 6.3 46.2 4.5 62.7-4.1 8.8-4.6 18.3-14.5 22.9-23.8 3.7-7.4 7.8-21.8 7.8-27.3V292h-63v-47h121v155h-40.9l-.7-3.8c-.3-2-1.7-9-3-15.6-1.3-6.5-2.4-12.1-2.4-12.3 0-.2-2.1 2-4.7 4.9-18.8 21.4-40.9 31.5-71.3 32.5-24.6.9-44.8-3.2-65.6-13.2-29.6-14.1-49.5-34.7-63.6-66.1-16.6-36.7-18.2-87.2-4.1-127.8 17.5-50.3 57.3-83.3 109.4-90.6 10.9-1.5 41.2-.4 50.9 1.8z"/></svg>